<?xml version="1.0" encoding="UTF-8" standalone="no"?>
<!-- Created with Inkscape (http://www.inkscape.org/) -->

<svg
   width="1080"
   height="1080"
   viewBox="0 0 1080 1080"
   version="1.1"
   id="svg1"
   xml:space="preserve"
   inkscape:version="1.4.2 (f4327f4, 2025-05-13)"
   sodipodi:docname="tradeupFondoAzul.svg"
   xmlns:inkscape="http://www.inkscape.org/namespaces/inkscape"
   xmlns:sodipodi="http://sodipodi.sourceforge.net/DTD/sodipodi-0.dtd"
   xmlns="http://www.w3.org/2000/svg"
   xmlns:svg="http://www.w3.org/2000/svg"><sodipodi:namedview
     id="namedview1"
     pagecolor="#ffffff"
     bordercolor="#000000"
     borderopacity="0.25"
     inkscape:showpageshadow="2"
     inkscape:pageopacity="0.0"
     inkscape:pagecheckerboard="0"
     inkscape:deskcolor="#d1d1d1"
     inkscape:document-units="px"
     showguides="true"
     inkscape:zoom="0.5283659"
     inkscape:cx="515.74108"
     inkscape:cy="563.05678"
     inkscape:window-width="1920"
     inkscape:window-height="1009"
     inkscape:window-x="-8"
     inkscape:window-y="-8"
     inkscape:window-maximized="1"
     inkscape:current-layer="layer1" /><defs
     id="defs1" /><rect
     style="fill:#105dfb;fill-opacity:1;stroke-width:0.956681"
     id="rect2"
     width="1080.2202"
     height="1079.749"
     x="0.11828854"
     y="0.21976371"
     ry="0" /><g
     inkscape:label="Capa 1"
     inkscape:groupmode="layer"
     id="layer1"><g
       transform="matrix(0.15747008,0,0,-0.15747008,136.15083,935.41903)"
       fill="#000000"
       stroke="none"
       id="g4"
       style="fill:#ffffff;fill-opacity:1;fill-rule:nonzero"><path
         d="m 1404,5011 c -51,-23 -108,-90 -123,-144 -9,-30 -11,-209 -9,-643 l 3,-601 30,-49 c 19,-30 49,-60 79,-79 l 49,-30 389,-5 389,-5 146,-252 c 210,-363 196,-363 406,0 l 146,252 389,5 389,5 49,30 c 30,19 60,49 79,79 l 30,49 3,601 c 2,434 0,613 -9,643 -15,54 -72,121 -123,144 -39,18 -94,19 -1156,19 -1062,0 -1117,-1 -1156,-19 z m 2266,-161 c 20,-20 20,-33 20,-600 v -581 l -25,-24 -24,-25 h -398 c -336,0 -402,-2 -420,-15 -11,-8 -74,-107 -139,-220 -66,-113 -121,-205 -124,-205 -3,0 -58,92 -124,205 -65,113 -128,212 -139,220 -18,13 -84,15 -420,15 h -398 l -24,25 -25,24 v 581 c 0,567 0,580 20,600 20,20 33,20 1110,20 1077,0 1090,0 1110,-20 z"
         id="path1"
         style="fill:#ffffff;fill-opacity:1;fill-rule:nonzero" /><path
         d="m 1968,4671 c -13,-11 -45,-66 -72,-124 l -48,-105 -96,-12 c -151,-19 -171,-26 -188,-65 -20,-49 -9,-69 90,-163 l 87,-81 -23,-126 -22,-125 21,-28 c 34,-46 74,-42 195,23 l 106,56 102,-56 c 119,-65 159,-69 193,-23 l 21,28 -22,124 -22,123 89,88 c 49,48 92,98 95,111 4,14 0,37 -9,54 -18,34 -43,42 -186,60 l -96,12 -48,105 c -64,138 -107,171 -167,124 z m 77,-306 c 31,-64 40,-71 118,-80 l 59,-8 -45,-46 c -55,-57 -59,-69 -46,-132 6,-28 9,-53 6,-56 -3,-2 -25,7 -50,21 -55,33 -80,33 -141,0 -26,-14 -50,-24 -52,-21 -2,2 0,27 6,55 12,65 8,76 -47,133 l -45,47 63,7 c 70,8 93,26 124,95 10,22 19,40 20,40 2,0 15,-25 30,-55 z"
         id="path2"
         style="fill:#ffffff;fill-opacity:1;fill-rule:nonzero" /><path
         d="m 3058,4670 c -14,-10 -47,-66 -73,-123 l -48,-105 -96,-12 c -143,-18 -168,-26 -186,-60 -9,-17 -13,-40 -9,-54 3,-13 46,-63 95,-111 l 89,-88 -22,-123 -22,-124 21,-28 c 34,-46 73,-42 193,23 57,30 104,55 105,55 1,0 48,-25 104,-56 119,-64 159,-69 194,-22 l 21,28 -22,124 -22,125 86,83 c 99,95 110,115 90,163 -17,39 -37,46 -188,65 l -96,12 -48,105 c -64,139 -106,171 -166,123 z m 119,-369 c 10,-5 44,-12 76,-16 l 59,-8 -45,-46 c -55,-57 -59,-68 -47,-133 6,-28 8,-53 6,-55 -2,-3 -26,7 -52,21 -61,33 -84,33 -140,0 -25,-15 -47,-24 -50,-21 -3,3 -1,28 5,56 13,63 9,75 -46,132 l -45,46 59,8 c 78,9 87,16 119,81 l 28,56 28,-55 c 15,-31 36,-60 45,-66 z"
         id="path3"
         style="fill:#ffffff;fill-opacity:1;fill-rule:nonzero" /><path
         d="M 899,3377 C 879,3362 20,2025 6,1987 c -8,-21 -7,-34 4,-54 16,-27 722,-489 757,-494 37,-6 72,12 95,48 13,20 26,41 30,47 5,7 45,-26 101,-83 l 94,-93 -26,-47 c -36,-64 -37,-174 -3,-241 44,-84 114,-136 199,-148 l 48,-7 7,-48 c 8,-59 46,-126 95,-166 38,-32 110,-61 149,-61 18,0 23,-7 29,-42 20,-120 112,-213 231,-232 39,-7 42,-10 47,-46 17,-130 131,-229 263,-230 104,0 146,21 254,129 53,53 103,107 112,120 l 15,25 121,-88 c 67,-48 137,-93 156,-101 42,-18 148,-18 193,-2 101,38 169,128 180,240 l 6,63 47,17 c 58,21 125,84 151,143 11,24 21,69 23,100 l 3,57 50,19 c 99,36 173,142 173,246 0,41 4,54 18,58 57,19 82,33 120,68 51,47 71,82 87,151 l 11,49 180,83 c 98,45 182,82 185,82 4,1 21,-21 38,-48 35,-54 76,-76 114,-61 12,5 182,112 377,238 227,146 360,238 370,255 11,20 12,33 4,54 -14,38 -873,1375 -893,1390 -40,31 -67,17 -442,-224 -403,-260 -407,-263 -376,-329 10,-19 17,-37 17,-39 0,-3 -237,-5 -527,-5 -586,0 -596,-1 -724,-65 -45,-23 -98,-63 -148,-110 l -78,-75 -138,80 c -76,43 -142,83 -147,88 -6,6 5,35 31,78 23,37 41,73 41,80 0,24 -21,60 -44,75 -12,8 -178,114 -368,237 -351,226 -379,240 -419,209 z m 356,-359 283,-182 -37,-57 C 1061,2089 764,1631 758,1630 c -14,0 -560,357 -559,366 1,10 764,1203 770,1204 2,0 131,-82 286,-182 z m 3283,-416 c 210,-328 382,-601 383,-607 0,-10 -545,-365 -559,-365 -6,1 -247,373 -744,1149 l -36,57 281,182 c 155,99 284,181 287,181 3,0 177,-269 388,-597 z m -712,-442 c 161,-250 293,-460 294,-465 0,-6 -73,-43 -161,-84 l -161,-73 -42,40 c -61,59 -852,621 -916,651 -48,23 -68,26 -160,26 -131,0 -154,-10 -377,-163 -219,-150 -212,-147 -314,-147 -79,0 -90,3 -155,36 -83,44 -109,74 -96,110 12,31 414,428 469,462 23,14 68,35 100,46 56,20 80,20 642,18 l 585,-2 z m -2108,316 c 56,-32 102,-61 102,-64 0,-3 -51,-57 -113,-121 -97,-100 -115,-123 -126,-164 -20,-81 8,-169 71,-222 18,-16 75,-49 127,-74 85,-41 102,-45 182,-49 128,-6 193,16 344,118 314,213 280,194 356,198 43,3 82,-1 102,-9 59,-24 892,-625 905,-653 48,-105 -65,-207 -163,-148 -16,10 -160,112 -318,225 -158,114 -299,210 -312,213 -49,12 -102,-43 -90,-96 6,-26 50,-61 316,-251 170,-122 318,-233 329,-247 45,-56 12,-152 -60,-173 -55,-17 -61,-13 -334,182 -250,178 -269,186 -313,135 -25,-29 -29,-56 -13,-86 6,-11 118,-96 249,-190 145,-104 242,-180 249,-195 26,-57 4,-132 -45,-154 -51,-23 -95,-14 -163,36 -198,144 -274,193 -302,193 -35,0 -78,-40 -78,-72 0,-39 25,-63 173,-169 78,-56 154,-113 169,-127 75,-70 25,-192 -77,-192 -39,0 -59,11 -201,113 -139,98 -162,119 -181,160 -28,57 -92,122 -139,139 -28,10 -34,16 -29,33 31,109 8,203 -70,281 -29,29 -65,56 -80,60 -21,5 -25,11 -20,28 3,11 9,49 12,82 11,115 -46,217 -149,268 -41,21 -66,26 -122,26 -70,0 -144,-23 -160,-49 -12,-18 -23,-13 -36,19 -16,38 -90,107 -138,127 -20,9 -66,16 -102,17 -83,1 -141,-25 -216,-95 l -55,-53 -105,105 -104,105 282,441 283,441 30,-17 c 17,-9 76,-43 133,-75 z M 1515,1456 c 40,-17 65,-60 65,-112 0,-34 -10,-47 -107,-146 -112,-113 -143,-132 -198,-116 -52,14 -80,52 -80,108 0,49 1,50 95,146 135,137 157,148 225,120 z m 471,-140 c 45,-45 47,-96 5,-152 -34,-45 -314,-323 -351,-348 -13,-9 -42,-16 -63,-16 -31,0 -46,7 -73,34 -29,29 -34,41 -34,82 v 48 l 193,193 193,193 h 48 c 41,0 53,-5 82,-34 z m 165,-382 c 34,-33 44,-73 30,-117 -16,-48 -256,-282 -298,-292 -41,-8 -71,1 -105,33 -33,30 -43,71 -29,115 12,37 241,270 281,286 38,16 90,5 121,-25 z m 180,-370 c 10,-9 23,-32 29,-50 18,-54 -1,-92 -94,-182 -80,-79 -85,-82 -130,-82 -92,0 -146,95 -97,173 32,53 147,155 184,165 37,10 82,0 108,-24 z"
         id="path4"
         style="fill:#ffffff;fill-opacity:1;fill-rule:nonzero" /></g></g></svg>
